<?xml version="1.0" encoding="utf-8"?><svg xmlns="http://www.w3.org/2000/svg" xmlns:xlink="http://www.w3.org/1999/xlink"><symbol viewBox="0 0 17 23" id="blank" xmlns="http://www.w3.org/2000/svg"><path d="M1.962 23h13.077C16.12 23 17 22.093 17 20.979V6.739h-4.577c-1.082 0-1.962-.908-1.962-2.022V0h-8.5C.88 0 0 .907 0 2.021v18.957C0 22.093.88 23 1.962 23zM4.577 9.479h7.846c.361 0 .654.3.654.673a.664.664 0 01-.654.674H4.577a.664.664 0 01-.654-.674c0-.372.293-.673.654-.673zm0 2.695h7.846c.361 0 .654.301.654.674a.664.664 0 01-.654.673H4.577a.664.664 0 01-.654-.673c0-.373.293-.674.654-.674zm0 2.695h7.846c.361 0 .654.302.654.674a.664.664 0 01-.654.674H4.577a.664.664 0 01-.654-.674c0-.372.293-.674.654-.674zm0 2.695h5.23c.362 0 .654.302.654.674a.664.664 0 01-.653.674H4.577a.664.664 0 01-.654-.674c0-.372.293-.674.654-.674z"/><path d="M12.423 5.39h4.194L11.769.396v4.322c0 .372.293.674.654.674z"/></symbol><symbol viewBox="0 0 19 19" id="check" xmlns="http://www.w3.org/2000/svg"><g clip-path="url(#bclip0)"><path d="M7.275 16.598a.967.967 0 01-1.371 0L.426 11.12a1.454 1.454 0 010-2.058l.686-.686a1.455 1.455 0 012.058 0l3.42 3.42 9.24-9.24a1.455 1.455 0 012.058 0l.686.685c.568.569.568 1.49 0 2.058L7.275 16.598z"/></g><defs><clipPath id="bclip0"><path d="M0 0h19v19H0z"/></clipPath></defs></symbol><symbol viewBox="0 0 10 10" id="chevron-down" xmlns="http://www.w3.org/2000/svg"><g clip-path="url(#cclip0)"><path d="M9.84 2.54l-.327-.33a.543.543 0 00-.387-.16.544.544 0 00-.387.16L5.002 5.948l-3.74-3.74a.543.543 0 00-.387-.16.543.543 0 00-.387.16l-.328.327a.548.548 0 000 .774l4.454 4.47a.56.56 0 00.388.175h.002a.559.559 0 00.386-.175L9.84 3.32a.552.552 0 000-.78z"/></g><defs><clipPath id="cclip0"><path d="M0 0h10v10H0z"/></clipPath></defs></symbol><symbol viewBox="0 0 26 25" id="phone" xmlns="http://www.w3.org/2000/svg"><path d="M21.427 13.119h-.203a.71.71 0 01-.456-.861 5.57 5.57 0 00-1.418-5.672 5.672 5.672 0 00-5.773-1.367.709.709 0 01-.86-.405.709.709 0 01.433-.904l.022-.008a6.989 6.989 0 018.913 8.71.709.709 0 01-.658.507z"/><path d="M24.82 13.321h-.152a.659.659 0 01-.515-.776l.008-.034a9.318 9.318 0 00-2.532-8.204 8.963 8.963 0 00-8.102-2.228.658.658 0 01-.81-.507.658.658 0 01.506-.81 10.381 10.381 0 019.369 2.583 10.534 10.534 0 012.886 9.47.709.709 0 01-.658.506zM8.513 6.485L5.981 9.118a.708.708 0 00-.203.71 15.65 15.65 0 009.42 9.621.76.76 0 00.709-.203l2.684-2.835 5.165 3.038c-.05 1.215-.709 3.14-2.481 3.494-.866.182-1.749.267-2.633.254-9.724 0-15.497-10.686-16.864-14.737-.659-1.975-.557-3.545.304-4.811A5.673 5.673 0 015.728 1.42zm10.23 18.079a14.234 14.234 0 002.836-.304c2.684-.557 3.697-3.444 3.494-5.267a.556.556 0 00-.304-.506l-5.976-3.494a.76.76 0 00-.86.1l-2.735 2.887a14.333 14.333 0 01-7.95-8.204L9.88 7.092a.709.709 0 00.102-.81L6.69.357a.608.608 0 00-.608-.354c-1.266.1-4 1.266-5.115 2.886C-.147 4.51-.299 6.535.512 8.865c2.076 6.431 8.76 15.699 18.23 15.699z"/></symbol><symbol viewBox="0 0 21 21" id="plus" xmlns="http://www.w3.org/2000/svg"><path d="M19.125 8.625H12.75a.375.375 0 01-.375-.375V1.875a1.875 1.875 0 00-3.75 0V8.25a.375.375 0 01-.375.375H1.875a1.875 1.875 0 000 3.75H8.25c.207 0 .375.168.375.375v6.375a1.875 1.875 0 003.75 0V12.75c0-.207.168-.375.375-.375h6.375a1.875 1.875 0 000-3.75z"/></symbol><symbol viewBox="0 0 12 12" id="star" xmlns="http://www.w3.org/2000/svg"><path d="M4.428 1.184a1.635 1.635 0 013.144 0l.283.904c.221.706.856 1.184 1.572 1.184h.917c1.601 0 2.267 2.124.972 3.099l-.743.559a1.749 1.749 0 00-.6 1.915l.284.905c.494 1.578-1.248 2.89-2.544 1.915l-.742-.559a1.606 1.606 0 00-1.942 0l-.742.559c-1.296.976-3.038-.337-2.544-1.915l.284-.905a1.749 1.749 0 00-.6-1.915l-.744-.56c-1.295-.975-.63-3.1.972-3.1h.917c.716 0 1.35-.477 1.572-1.183l.283-.904z"/></symbol></svg>