<svg width="17" height="23" viewBox="0 0 17 23" fill="none" xmlns="http://www.w3.org/2000/svg">
<path d="M1.96154 23H15.0385C16.1201 23 17 22.0932 17 20.9785V6.73828H12.4231C11.3414 6.73828 10.4615 5.83149 10.4615 4.7168V0H1.96154C0.879903 0 0 0.906793 0 2.02148V20.9785C0 22.0932 0.879903 23 1.96154 23ZM4.57692 9.47852H12.4231C12.7845 9.47852 13.0769 9.7799 13.0769 10.1523C13.0769 10.5248 12.7845 10.8262 12.4231 10.8262H4.57692C4.21552 10.8262 3.92308 10.5248 3.92308 10.1523C3.92308 9.7799 4.21552 9.47852 4.57692 9.47852ZM4.57692 12.1738H12.4231C12.7845 12.1738 13.0769 12.4752 13.0769 12.8477C13.0769 13.2201 12.7845 13.5215 12.4231 13.5215H4.57692C4.21552 13.5215 3.92308 13.2201 3.92308 12.8477C3.92308 12.4752 4.21552 12.1738 4.57692 12.1738ZM4.57692 14.8691H12.4231C12.7845 14.8691 13.0769 15.1705 13.0769 15.543C13.0769 15.9154 12.7845 16.2168 12.4231 16.2168H4.57692C4.21552 16.2168 3.92308 15.9154 3.92308 15.543C3.92308 15.1705 4.21552 14.8691 4.57692 14.8691ZM4.57692 17.5645H9.80769C10.1691 17.5645 10.4615 17.8658 10.4615 18.2383C10.4615 18.6107 10.1691 18.9121 9.80769 18.9121H4.57692C4.21552 18.9121 3.92308 18.6107 3.92308 18.2383C3.92308 17.8658 4.21552 17.5645 4.57692 17.5645Z" fill="#C7CED6"/>
<path d="M12.4231 5.39062H16.6169L11.7692 0.394818V4.7168C11.7692 5.08857 12.0623 5.39062 12.4231 5.39062Z" fill="#C7CED6"/>
</svg>
