<svg width="10" height="10" viewBox="0 0 10 10" fill="none" xmlns="http://www.w3.org/2000/svg">
<g clip-path="url(#clip0)">
<path d="M9.84016 2.54035L9.5126 2.21051C9.40951 2.10751 9.27235 2.05076 9.12577 2.05076C8.97926 2.05076 8.84194 2.10751 8.73885 2.21051L5.00224 5.94729L1.26131 2.20637C1.15838 2.10336 1.02107 2.04669 0.87456 2.04669C0.728055 2.04669 0.590655 2.10336 0.487646 2.20637L0.160001 2.53418C-0.0533338 2.74735 -0.0533338 3.09459 0.160001 3.30776L4.61402 7.77779C4.71695 7.88072 4.8541 7.95324 5.00191 7.95324H5.00362C5.1502 7.95324 5.28736 7.88064 5.39029 7.77779L9.84016 3.31987C9.94325 3.21695 9.99984 3.07564 10 2.92914C10 2.78255 9.94325 2.6432 9.84016 2.54035Z" fill="#5B84C0"/>
</g>
<defs>
<clipPath id="clip0">
<rect width="10" height="10" fill="white"/>
</clipPath>
</defs>
</svg>
