<svg xmlns="http://www.w3.org/2000/svg" width="26" height="25" viewBox="0 0 26 25"><g><g><g><g><path fill="#fff" d="M21.427 13.119h-.203a.71.71 0 0 1-.456-.861 5.57 5.57 0 0 0-1.418-5.672 5.672 5.672 0 0 0-5.773-1.367.709.709 0 0 1-.86-.405.709.709 0 0 1 .433-.904l.022-.008a6.989 6.989 0 0 1 8.913 8.71.709.709 0 0 1-.658.507z"/></g><g><path fill="#fff" d="M24.82 13.321h-.152a.659.659 0 0 1-.515-.776l.008-.034a9.318 9.318 0 0 0-2.532-8.204 8.963 8.963 0 0 0-8.102-2.228.658.658 0 0 1-.81-.507.658.658 0 0 1 .506-.81 10.381 10.381 0 0 1 9.369 2.583 10.534 10.534 0 0 1 2.886 9.47.709.709 0 0 1-.658.506z"/></g><g><path fill="#fff" d="M8.513 6.485L5.981 9.118a.708.708 0 0 0-.203.71 15.65 15.65 0 0 0 9.42 9.621.76.76 0 0 0 .709-.203l2.684-2.835 5.165 3.038c-.05 1.215-.709 3.14-2.481 3.494-.866.182-1.749.267-2.633.254-9.724 0-15.497-10.686-16.864-14.737-.659-1.975-.557-3.545.304-4.811A5.673 5.673 0 0 1 5.728 1.42zm10.23 18.079a14.234 14.234 0 0 0 2.836-.304c2.684-.557 3.697-3.444 3.494-5.267a.556.556 0 0 0-.304-.506l-5.976-3.494a.76.76 0 0 0-.86.1l-2.735 2.887a14.333 14.333 0 0 1-7.95-8.204L9.88 7.092a.709.709 0 0 0 .102-.81L6.69.357a.608.608 0 0 0-.608-.354c-1.266.1-4 1.266-5.115 2.886C-.147 4.51-.299 6.535.512 8.865c2.076 6.431 8.76 15.699 18.23 15.699z"/></g></g></g></g></svg>