<svg width="21" height="21" viewBox="0 0 21 21" fill="none" xmlns="http://www.w3.org/2000/svg">
<path d="M19.125 8.625H12.75C12.5429 8.625 12.375 8.45709 12.375 8.25V1.875C12.375 0.839539 11.5355 0 10.5 0C9.46454 0 8.625 0.839539 8.625 1.875V8.25C8.625 8.45709 8.45709 8.625 8.25 8.625H1.875C0.839539 8.625 0 9.46454 0 10.5C0 11.5355 0.839539 12.375 1.875 12.375H8.25C8.45709 12.375 8.625 12.5429 8.625 12.75V19.125C8.625 20.1605 9.46454 21 10.5 21C11.5355 21 12.375 20.1605 12.375 19.125V12.75C12.375 12.5429 12.5429 12.375 12.75 12.375H19.125C20.1605 12.375 21 11.5355 21 10.5C21 9.46454 20.1605 8.625 19.125 8.625Z" fill="#C7CED6"/>
</svg>
