<svg width="12" height="12" viewBox="0 0 12 12" fill="none" xmlns="http://www.w3.org/2000/svg">
<path d="M4.42825 1.18378C4.92297 -0.394592 7.07703 -0.394592 7.57175 1.18378L7.8552 2.0881C8.07644 2.79397 8.71098 3.27188 9.42694 3.27188H10.3442C11.9451 3.27188 12.6108 5.39556 11.3156 6.37104L10.5735 6.92994C9.99429 7.36619 9.75192 8.13947 9.97316 8.84533L10.2566 9.74965C10.7513 11.328 9.00866 12.6405 7.71347 11.665L6.97139 11.1061C6.39217 10.6699 5.60783 10.6699 5.02861 11.1061L4.28653 11.665C2.99134 12.6405 1.24867 11.328 1.74339 9.74966L2.02684 8.84533C2.24808 8.13947 2.00571 7.36619 1.42648 6.92994L0.684407 6.37104C-0.610783 5.39556 0.0548571 3.27188 1.6558 3.27188H2.57306C3.28902 3.27188 3.92356 2.79397 4.1448 2.0881L4.42825 1.18378Z" fill="#FD8822"/>
</svg>
