<svg width="42" height="42" viewBox="0 0 42 42" fill="none" xmlns="http://www.w3.org/2000/svg">
<path d="M21 42C32.598 42 42 32.598 42 21C42 9.40202 32.598 0 21 0C9.40202 0 0 9.40202 0 21C0 32.598 9.40202 42 21 42Z" fill="#7982ED"/>
<path d="M26.3872 6.0872H10.3313V34.1887H31.6688V11.3688L26.3872 6.0872Z" fill="white"/>
<path d="M31.6687 11.3688L26.3872 6.0872H21V34.1887H31.6687V11.3688Z" fill="#E9ECF4"/>
<path d="M26.3871 11.3688H31.6687L26.3871 6.0872V11.3688Z" fill="#CDD1E0"/>
<path d="M12.9048 13.9339H29.0951V16.2323H12.9048V13.9339Z" fill="#BEC2D0"/>
<path d="M21 13.9339H29.0952V16.2323H21V13.9339Z" fill="#9195A8"/>
<path d="M12.9048 18.2095H29.0951V20.5078H12.9048V18.2095Z" fill="#BEC2D0"/>
<path d="M21 18.2095H29.0952V20.5078H21V18.2095Z" fill="#9195A8"/>
<path d="M12.9048 22.485H29.0951V24.7834H12.9048V22.485Z" fill="#BEC2D0"/>
<path d="M21 22.485H29.0952V24.7834H21V22.485Z" fill="#9195A8"/>
<path d="M12.8375 26.7605L8.61499 29.3261L12.8375 31.8917L14.8686 29.3261L12.8375 26.7605Z" fill="#F1CC30"/>
<path d="M12.8376 26.7605H35.6837V31.8917H12.8376V26.7605Z" fill="#E06A24"/>
<path d="M21 26.7605H35.6836V31.8917H21V26.7605Z" fill="#D24611"/>
</svg>
