<svg width="42" height="42" viewBox="0 0 42 42" fill="none" xmlns="http://www.w3.org/2000/svg">
<path d="M21 42C32.598 42 42 32.598 42 21C42 9.40202 32.598 0 21 0C9.40202 0 0 9.40202 0 21C0 32.598 9.40202 42 21 42Z" fill="#90DFAA"/>
<path d="M25.1083 31.5167L11.35 35.1917V10.4833L25.1083 6.80833V31.5167Z" fill="#2B3B4E"/>
<path d="M30.65 10.4833H11.35V35.1917H30.65V10.4833Z" fill="#324A5E"/>
<path d="M18.3084 22.7667C17.9001 22.9833 17.5251 23.2583 17.1917 23.5667C16.3251 22.6583 15.7751 21.45 15.7334 20.1167H17.9084C17.9251 21.0833 18.0667 21.9833 18.3084 22.7667Z" fill="#E6E9EE"/>
<path d="M17.9 19.725H15.725C15.775 18.4083 16.3 17.2167 17.1416 16.3167C17.4833 16.6333 17.8666 16.9083 18.2833 17.1417C18.0583 17.9 17.9166 18.7833 17.9 19.725Z" fill="#E6E9EE"/>
<path d="M18.4083 16.7667C18.05 16.5667 17.7166 16.325 17.4166 16.0417C18.0333 15.475 18.7833 15.05 19.625 14.825C19.125 15.2583 18.7083 15.9333 18.4083 16.7667Z" fill="#E6E9EE"/>
<path d="M19.625 25.0083C18.8083 24.7917 18.075 24.375 17.4667 23.8333C17.7583 23.5667 18.0833 23.3333 18.4333 23.1333C18.7333 23.9333 19.1417 24.5833 19.625 25.0083Z" fill="#E6E9EE"/>
<path d="M20.8083 14.6583V17.45C20.075 17.425 19.3833 17.25 18.7583 16.95C19.2083 15.65 19.9583 14.775 20.8083 14.6583Z" fill="#E6E9EE"/>
<path d="M18.6417 17.3167C19.3083 17.625 20.0417 17.8083 20.8083 17.8333V19.725H18.2833C18.3 18.85 18.425 18.0333 18.6417 17.3167Z" fill="#E6E9EE"/>
<path d="M18.2833 20.1083H20.8083V22.0833C20.0417 22.1083 19.3167 22.2833 18.6583 22.5833C18.4333 21.8583 18.3 21.0083 18.2833 20.1083Z" fill="#E6E9EE"/>
<path d="M18.7833 22.9583C19.4 22.6667 20.0917 22.5 20.8083 22.4667V25.175C19.9667 25.0667 19.2417 24.2083 18.7833 22.9583Z" fill="#E6E9EE"/>
<path d="M23.2166 22.95C22.7583 24.2083 22.025 25.0583 21.1917 25.175V22.4667C21.9166 22.4917 22.6 22.6667 23.2166 22.95Z" fill="#E6E9EE"/>
<path d="M23.2416 16.9417C22.6166 17.2333 21.925 17.4167 21.1917 17.4417V14.65C22.0416 14.775 22.7833 15.65 23.2416 16.9417Z" fill="#E6E9EE"/>
<path d="M23.3416 22.5917C22.6833 22.2917 21.9583 22.1167 21.1917 22.0917V20.1167H23.7166C23.7 21.0083 23.5666 21.8583 23.3416 22.5917Z" fill="#E6E9EE"/>
<path d="M23.7166 19.725H21.1917V17.8333C21.9666 17.8083 22.7 17.625 23.3583 17.3167C23.575 18.0333 23.7 18.85 23.7166 19.725Z" fill="#E6E9EE"/>
<path d="M23.5665 23.1333C23.9165 23.325 24.2415 23.5583 24.5332 23.8333C23.9249 24.3833 23.1832 24.7917 22.3749 25.0167C22.8582 24.5833 23.2665 23.9333 23.5665 23.1333Z" fill="#E6E9EE"/>
<path d="M22.3749 14.825C23.2082 15.05 23.9665 15.475 24.5832 16.0417C24.2832 16.3167 23.9499 16.5583 23.5915 16.7667C23.2915 15.9333 22.8749 15.2583 22.3749 14.825Z" fill="#E6E9EE"/>
<path d="M24.0917 20.1083H26.2667C26.2167 21.4417 25.675 22.65 24.8083 23.5583C24.475 23.25 24.0917 22.9833 23.6917 22.7583C23.9333 21.9833 24.075 21.0833 24.0917 20.1083Z" fill="#E6E9EE"/>
<path d="M23.7083 17.1417C24.1249 16.9167 24.4999 16.6333 24.8416 16.3167C25.6833 17.2167 26.2166 18.4083 26.2583 19.725H24.0833C24.0833 18.7833 23.9416 17.9 23.7083 17.1417Z" fill="#E6E9EE"/>
<path d="M17.775 28.3167C17.9833 28.4917 18.0833 28.7583 18.0833 29.125C18.0833 29.4833 17.975 29.75 17.7667 29.9167C17.5583 30.0833 17.2333 30.1667 16.8 30.1667H16.4083V30.9833H15.75V28.05H16.7833C17.2417 28.05 17.5667 28.1417 17.775 28.3167ZM17.2917 29.4667C17.3667 29.375 17.4083 29.25 17.4083 29.0833C17.4083 28.9167 17.3583 28.7917 17.2583 28.725C17.1583 28.65 17 28.6167 16.7833 28.6167H16.4083V29.6H16.85C17.0667 29.6 17.2167 29.5583 17.2917 29.4667Z" fill="white"/>
<path d="M20.4833 30.9833L20.2083 30.35H18.9833L18.7083 30.9833H18.0083L19.275 28.05H19.9083L21.175 30.9833H20.4833ZM19.6 28.925L19.2333 29.775H19.9666L19.6 28.925Z" fill="white"/>
<path d="M22.1584 28.6417C22.0917 28.6917 22.0667 28.7583 22.0667 28.85C22.0667 28.9417 22.1084 29 22.1834 29.05C22.2584 29.1 22.4417 29.1583 22.7167 29.225C22.9917 29.2917 23.2084 29.4 23.3667 29.5333C23.5167 29.6667 23.6 29.8667 23.6 30.1333C23.6 30.4 23.5 30.6083 23.3084 30.775C23.1084 30.9417 22.85 31.0167 22.5334 31.0167C22.0667 31.0167 21.65 30.8417 21.275 30.5L21.6667 30.025C21.9834 30.3 22.275 30.4417 22.5417 30.4417C22.6584 30.4417 22.7584 30.4167 22.825 30.3667C22.8917 30.3167 22.925 30.2417 22.925 30.1583C22.925 30.0667 22.8917 30 22.8167 29.95C22.7417 29.9 22.6 29.85 22.3834 29.7917C22.0417 29.7083 21.7917 29.6083 21.6334 29.475C21.475 29.3417 21.4 29.1417 21.4 28.8667C21.4 28.5917 21.5 28.375 21.7 28.225C21.9 28.075 22.15 28 22.45 28C22.6417 28 22.8417 28.0333 23.0334 28.1C23.2334 28.1667 23.4 28.2583 23.5417 28.3833L23.2084 28.8583C22.95 28.6667 22.6917 28.5667 22.4167 28.5667C22.3084 28.5583 22.225 28.5917 22.1584 28.6417Z" fill="white"/>
<path d="M24.8167 28.6417C24.75 28.6917 24.725 28.7583 24.725 28.85C24.725 28.9417 24.7667 29 24.8417 29.05C24.9167 29.1 25.1 29.1583 25.375 29.225C25.65 29.2917 25.8667 29.4 26.025 29.5333C26.175 29.6667 26.2584 29.8667 26.2584 30.1333C26.2584 30.4 26.1584 30.6083 25.9667 30.775C25.7667 30.9417 25.5084 31.0167 25.1917 31.0167C24.725 31.0167 24.3084 30.8417 23.9333 30.5L24.325 30.025C24.6417 30.3 24.9334 30.4417 25.2 30.4417C25.3167 30.4417 25.4167 30.4167 25.4834 30.3667C25.55 30.3167 25.5834 30.2417 25.5834 30.1583C25.5834 30.0667 25.55 30 25.475 29.95C25.4 29.9 25.2584 29.85 25.0417 29.7917C24.7 29.7083 24.45 29.6083 24.2917 29.475C24.1333 29.3417 24.0583 29.1417 24.0583 28.8667C24.0583 28.5917 24.1583 28.375 24.3583 28.225C24.5583 28.075 24.8084 28 25.1084 28C25.3 28 25.5 28.0333 25.6917 28.1C25.8917 28.1667 26.0584 28.2583 26.2 28.3833L25.8667 28.8583C25.6084 28.6667 25.35 28.5667 25.075 28.5667C24.9584 28.5583 24.875 28.5917 24.8167 28.6417Z" fill="white"/>
</svg>
