<svg width="42" height="42" viewBox="0 0 42 42" fill="none" xmlns="http://www.w3.org/2000/svg">
<g opacity="0.3">
<path d="M21 42C32.598 42 42 32.598 42 21C42 9.40202 32.598 0 21 0C9.40202 0 0 9.40202 0 21C0 32.598 9.40202 42 21 42Z" fill="#B1D3FD"/>
<path d="M37.0781 19.0724L20.9991 36.1034L4.92188 19.0724L7.80035 10.2443H34.1996L37.0781 19.0724Z" fill="#7982ED"/>
<path d="M37.0781 19.0724L20.9991 36.1034L4.92188 19.0724L7.80035 10.2443H34.1996L37.0781 19.0724Z" fill="#7982ED"/>
<path d="M20.9991 36.1034L37.0782 19.0724L34.1997 10.2443H20.9991V36.1034Z" fill="#636AE5"/>
<path d="M27.4912 19.0724L20.9991 36.1034L14.5089 19.0724L20.9991 15.7826L27.4912 19.0724Z" fill="#636AE5"/>
<path d="M20.9991 36.1034L27.4912 19.0724L20.9991 15.7826V36.1034Z" fill="#4755CB"/>
<path d="M7.80035 10.2443L14.5089 19.0724H4.92188L7.80035 10.2443Z" fill="#4755CB"/>
<path d="M14.5089 19.0724L20.9991 10.2443L27.4912 19.0724H14.5089Z" fill="#4755CB"/>
<path d="M20.9991 19.0724H27.4912L20.9991 10.2443V19.0724Z" fill="#36498B"/>
<path d="M27.4911 19.0724H37.0781L34.1996 10.2443L27.4911 19.0724Z" fill="#36498B"/>
</g>
</svg>
