<svg width="42" height="42" viewBox="0 0 42 42" fill="none" xmlns="http://www.w3.org/2000/svg">
<path d="M21 42C32.598 42 42 32.598 42 21C42 9.40202 32.598 0 21 0C9.40202 0 0 9.40202 0 21C0 32.598 9.40202 42 21 42Z" fill="#7982ED"/>
<path d="M28.212 28.8281C29.6221 28.8281 30.7653 27.685 30.7653 26.2749C30.7653 24.8648 29.6221 23.7216 28.212 23.7216C26.8019 23.7216 25.6588 24.8648 25.6588 26.2749C25.6588 27.685 26.8019 28.8281 28.212 28.8281Z" fill="#BEC2D0"/>
<path d="M28.212 29.5435C25.7788 29.5435 23.7431 31.2444 23.2284 33.522H33.1957C32.6809 31.2444 30.6452 29.5435 28.212 29.5435Z" fill="#BEC2D0"/>
<path d="M13.788 28.8281C15.1981 28.8281 16.3412 27.685 16.3412 26.2749C16.3412 24.8648 15.1981 23.7216 13.788 23.7216C12.3779 23.7216 11.2347 24.8648 11.2347 26.2749C11.2347 27.685 12.3779 28.8281 13.788 28.8281Z" fill="#DCE0EA"/>
<path d="M13.788 29.5435C11.3548 29.5435 9.31899 31.2444 8.80432 33.522H18.7716C18.2569 31.2444 16.2212 29.5435 13.788 29.5435Z" fill="#DCE0EA"/>
<path d="M21 29.3925C22.9069 29.3925 24.4528 27.8467 24.4528 25.9398C24.4528 24.0328 22.9069 22.487 21 22.487C19.0931 22.487 17.5472 24.0328 17.5472 25.9398C17.5472 27.8467 19.0931 29.3925 21 29.3925Z" fill="white"/>
<path d="M21 22.487V29.3925C22.9069 29.3925 24.4528 27.8467 24.4528 25.9398C24.4528 24.0329 22.9069 22.487 21 22.487Z" fill="#E9ECF4"/>
<path d="M20.9999 30.3599C17.7095 30.3599 14.9565 32.6601 14.2605 35.7401H27.7393C27.0434 32.6601 24.2904 30.3599 20.9999 30.3599Z" fill="white"/>
<path d="M21 30.36V35.7402H27.7394C27.0434 32.6602 24.2904 30.36 21 30.36Z" fill="#E9ECF4"/>
<path d="M34.7618 7.70864H7.39868V17.5435H11.7337L13.788 21.4922L15.8423 17.5435H19.0259L21 21.4084L23.1346 17.5435H26.1577L28.2121 21.4922L30.2664 17.5435H34.7618V7.70864Z" fill="#F1CC30"/>
<path d="M21 7.70864V21.4084L23.1345 17.5435H26.1576L28.212 21.4922L30.2663 17.5435H34.7617V7.70864H21Z" fill="#ECB931"/>
<path d="M21 8.88242L22.1424 11.265L24.6967 11.6471L22.8483 13.5017L23.2847 16.1205L21 14.884L18.7153 16.1205L19.1517 13.5017L17.3033 11.6471L19.8576 11.265L21 8.88242Z" fill="white"/>
<path d="M24.6967 11.6471L22.1424 11.265L21 8.88242V14.884L23.2847 16.1205L22.8483 13.5017L24.6967 11.6471Z" fill="#E9ECF4"/>
<path d="M29.6938 8.88242L30.8361 11.265L33.3905 11.6471L31.5421 13.5017L31.9785 16.1205L29.6938 14.884L27.4091 16.1205L27.8455 13.5017L25.9971 11.6471L28.5514 11.265L29.6938 8.88242Z" fill="#E9ECF4"/>
<path d="M12.3062 8.88242L13.4485 11.265L16.0029 11.6471L14.1545 13.5017L14.5909 16.1205L12.3062 14.884L10.0215 16.1205L10.4578 13.5017L8.6095 11.6471L11.1639 11.265L12.3062 8.88242Z" fill="white"/>
</svg>
