<svg width="42" height="42" viewBox="0 0 42 42" fill="none" xmlns="http://www.w3.org/2000/svg">
<g opacity="0.3" clip-path="url(#clip0)">
<path d="M21 42C32.598 42 42 32.598 42 21C42 9.40202 32.598 0 21 0C9.40202 0 0 9.40202 0 21C0 32.598 9.40202 42 21 42Z" fill="#B1D3FD"/>
<path d="M17.1414 37.5441C15.5704 37.5441 14.2184 36.4335 13.9134 34.8923L11.3506 21.9445H18.0596L20.3695 33.6144C20.7721 35.6489 19.2153 37.5441 17.1414 37.5441Z" fill="#656977"/>
<path d="M32.4163 23.669H28.9602V15.1724H32.4163C34.7625 15.1724 36.6646 17.0745 36.6646 19.4207C36.6645 21.767 34.7625 23.669 32.4163 23.669Z" fill="#C53D0E"/>
<path d="M28.9602 19.3884V23.669H32.4163C34.7625 23.669 36.6646 21.7669 36.6646 19.4207C36.6646 19.4099 36.6638 19.3993 36.6638 19.3885H28.9602V19.3884Z" fill="#B4370D"/>
<path d="M14.4549 13.705L27.8141 9.59503L28.969 19.4207L27.8141 29.2464L14.4549 25.1364L12.4574 19.4207L14.4549 13.705Z" fill="white"/>
<path d="M12.4686 19.3884L12.4574 19.4207L14.4549 25.1364L27.8141 29.2464L28.969 19.4207L28.9652 19.3884H12.4686Z" fill="#E9ECF4"/>
<path d="M26.6967 8.32494H32.3086V30.5165H26.6967V8.32494Z" fill="#DB5E1E"/>
<path d="M26.6967 19.3884H32.3086V30.5164H26.6967V19.3884Z" fill="#D24611"/>
<path d="M14.4549 25.1364H11.0511C7.89441 25.1364 5.33545 22.5774 5.33545 19.4207C5.33545 16.264 7.8945 13.705 11.0511 13.705H14.4549V25.1364Z" fill="#DB5E1E"/>
<path d="M5.33627 19.3884C5.33619 19.3992 5.33545 19.4098 5.33545 19.4207C5.33545 22.5773 7.8945 25.1363 11.0511 25.1363H14.4549V19.3883H5.33627V19.3884Z" fill="#D24611"/>
</g>
<defs>
<clipPath id="clip0">
<rect width="42" height="42" fill="white"/>
</clipPath>
</defs>
</svg>
