<svg width="42" height="42" viewBox="0 0 42 42" fill="none" xmlns="http://www.w3.org/2000/svg">
<path d="M21 42C32.598 42 42 32.598 42 21C42 9.40202 32.598 0 21 0C9.40202 0 0 9.40202 0 21C0 32.598 9.40202 42 21 42Z" fill="#78D464"/>
<path d="M28.3068 37.2752L21 33.9581L13.6932 37.2752V18.0337H28.3068V37.2752Z" fill="#E06A24"/>
<path d="M28.3068 18.0337H21V33.9581L28.3068 37.2752V18.0337Z" fill="#D24611"/>
<path d="M21 29.2195C27.7931 29.2195 33.3 23.7126 33.3 16.9195C33.3 10.1264 27.7931 4.61951 21 4.61951C14.2069 4.61951 8.69995 10.1264 8.69995 16.9195C8.69995 23.7126 14.2069 29.2195 21 29.2195Z" fill="#F1CC30"/>
<path d="M21 4.61942V29.2195C27.7932 29.2195 33.3 23.7126 33.3 16.9195C33.3 10.1264 27.7932 4.61942 21 4.61942Z" fill="#ECB931"/>
<path d="M20.9999 25.617C25.8034 25.617 29.6974 21.723 29.6974 16.9195C29.6974 12.1161 25.8034 8.22208 20.9999 8.22208C16.1965 8.22208 12.3025 12.1161 12.3025 16.9195C12.3025 21.723 16.1965 25.617 20.9999 25.617Z" fill="#E9A727"/>
<path d="M21 8.22208V25.617C25.8035 25.617 29.6974 21.723 29.6974 16.9195C29.6974 12.116 25.8035 8.22208 21 8.22208Z" fill="#E69423"/>
<path d="M21 9.46116L23.1058 13.8531L27.8143 14.5574L24.4072 17.976L25.2114 22.8033L21 20.5241L16.7886 22.8033L17.5929 17.976L14.1858 14.5574L18.8943 13.8531L21 9.46116Z" fill="white"/>
<path d="M27.8143 14.5574L23.1057 13.8531L21 9.46116V20.5241L25.2114 22.8032L24.4071 17.976L27.8143 14.5574Z" fill="#E9ECF4"/>
</svg>
